<?xml version="1.0" encoding="utf-8"?>
<svg version="1.2" xmlns:xlink="http://www.w3.org/1999/xlink" width="100%" viewBox="0 0 960 960" baseProfile="tiny-ps" xmlns="http://www.w3.org/2000/svg">
  <title>sgwzs</title>
<path fill="#000000" stroke="none" d=" M653.000000,502.307770   C643.340820,502.302551 634.179504,502.179047 625.023621,502.349640   C621.363220,502.417847 619.907776,501.065277 619.980103,497.426086   C620.348999,478.875519 617.417358,482.057251 634.520752,482.031769   C722.615112,481.900482 810.709778,481.967987 898.804321,481.966705   C906.325500,481.966614 906.325500,481.968536 906.339722,489.717163   C906.362854,502.328491 906.362854,502.324097 893.803284,502.323120   C813.702209,502.316742 733.601074,502.312469 653.000000,502.307770  z" />
<path fill="#000000" stroke="none" d=" M254.000000,484.056946   C281.499542,484.045532 308.499908,484.138855 335.497894,483.927673   C340.468414,483.888763 342.198761,485.323822 342.138947,490.435242   C341.976562,504.315216 342.185028,504.314789 328.546509,504.315155   C240.047974,504.317505 151.549423,504.322021 63.050892,504.322968   C55.662415,504.323029 55.662418,504.313202 55.649197,497.021454   C55.625572,483.993408 55.625565,484.005737 68.502937,484.009827   C130.168625,484.029449 191.834320,484.041840 254.000000,484.056946  z" />
<path fill="#000000" stroke="none" d=" M384.114441,335.885742   C380.904144,332.705017 378.005707,329.708160 374.963562,326.865112   C372.903198,324.939606 373.008331,323.393311 375.018982,321.471344   C379.232941,317.443237 383.453369,313.399536 387.363251,309.083344   C390.021606,306.148712 391.835388,306.238525 394.608398,309.059174   C409.443176,324.148712 424.443054,339.076202 439.413300,354.032257   C449.194366,363.804138 458.942230,373.611938 468.882721,383.219727   C471.501740,385.751099 471.776031,387.262695 469.018585,389.993896   C444.158051,414.617615 419.396637,439.342163 394.745026,464.174988   C391.755219,467.186737 389.861542,467.106873 387.132416,464.057312   C383.582581,460.090729 379.786713,456.310364 375.812744,452.768524   C372.804352,450.087280 373.141968,448.288208 375.894653,445.567017   C394.142395,427.528015 412.240173,409.337189 430.364441,391.173523   C431.751007,389.783936 433.496979,388.654114 434.319336,386.051331   C417.779449,369.524048 401.072296,352.829559 384.114441,335.885742  z" />
<path fill="#000000" stroke="none" d=" M578.962891,456.816895   C590.578857,456.951233 589.198608,455.607910 589.310974,466.716583   C589.358154,471.379425 589.075562,476.057465 589.364502,480.702362   C589.613159,484.698639 587.990784,485.986725 584.190552,485.951965   C571.866943,485.839355 559.541626,485.927826 547.216919,485.928772   C526.065063,485.930359 504.912140,485.808472 483.762238,486.009247   C478.944702,486.054962 477.261322,484.482452 477.567963,479.682068   C477.928223,474.042389 477.905457,468.347168 477.573303,462.704041   C477.302185,458.097992 478.956085,456.706512 483.536774,456.730560   C515.180420,456.896851 546.825317,456.817505 578.962891,456.816895  z" />
<path fill="#000000" stroke="none" d=" M373.069153,585.008667   C378.083832,596.216675 382.937408,607.079712 388.378998,619.258850   C392.541687,609.989868 396.063202,602.138794 399.593353,594.291626   C401.846039,589.284058 404.350067,584.373108 406.300507,579.250916   C408.058380,574.634399 411.680725,575.481262 415.039093,575.746765   C418.857910,576.048645 417.912323,579.328430 417.924713,581.572937   C418.030579,600.721924 417.916718,619.872375 418.075806,639.020691   C418.110474,643.192688 416.582794,644.428955 412.511963,644.455811   C408.284088,644.483643 407.552521,642.571716 407.588989,638.986450   C407.714294,626.671204 407.637146,614.353882 406.732422,601.688538   C403.646606,608.662781 400.554016,615.634033 397.478088,622.612549   C396.135712,625.658081 394.750824,628.688354 393.529266,631.782349   C392.636719,634.043030 391.291290,635.242371 388.709808,635.289490   C385.995087,635.339111 384.388611,634.271606 383.310425,631.821411   C379.025482,622.083618 374.643341,612.388550 369.322052,602.712036   C369.322052,606.015137 369.324799,609.318176 369.321533,612.621277   C369.312439,621.779785 369.191467,630.940125 369.342590,640.095947   C369.405487,643.906433 367.399658,644.485840 364.309845,644.375122   C361.547638,644.276062 358.838013,644.537170 358.848083,640.484619   C358.898621,620.169922 358.874939,599.854980 358.904449,579.540161   C358.907227,577.617371 359.239655,575.595703 361.760406,575.727905   C364.540527,575.873657 367.939392,574.183228 369.767822,577.864502   C370.877930,580.099487 371.865417,582.395325 373.069153,585.008667  z" />
<path fill="#000000" stroke="none" d=" M495.794800,617.000000   C495.804169,604.668396 495.922943,592.835388 495.763916,581.006042   C495.708893,576.910706 497.172424,575.400940 501.306152,575.538269   C508.796783,575.786987 516.301880,575.569885 523.800476,575.618530   C533.530701,575.681641 540.333862,580.397705 542.850769,588.730286   C545.692078,598.136841 542.652954,607.211365 534.853699,612.598083   C533.905884,613.252747 532.947449,613.892090 531.517151,614.861816   C536.411438,624.312622 541.262146,633.679199 546.139526,643.097351   C538.034180,646.071228 534.693054,644.851685 531.335815,638.173279   C528.118591,631.773376 524.916199,625.364563 521.581848,619.025696   C519.895691,615.820129 510.210236,613.841309 507.407288,615.991089   C505.971832,617.092041 506.392609,618.722534 506.381622,620.165100   C506.332123,626.663757 506.192841,633.168701 506.416901,639.659912   C506.550110,643.520020 504.891449,644.476196 501.346588,644.439026   C497.772369,644.401428 495.648468,643.686279 495.755493,639.495483   C495.942596,632.168091 495.799744,624.832275 495.794800,617.000000  M532.544373,597.059387   C532.411133,588.325684 529.462708,585.350037 520.882629,585.317139   C517.384827,585.303711 513.882446,585.435364 510.390503,585.293945   C507.322998,585.169739 506.241882,586.529602 506.341125,589.475525   C506.475616,593.468445 506.462738,597.472168 506.341217,601.466003   C506.251617,604.410950 507.387085,605.767944 510.427856,605.665833   C514.088013,605.542969 517.755798,605.665161 521.420044,605.643066   C528.262512,605.601807 530.170532,604.227661 532.544373,597.059387  z" />
<path fill="#000000" stroke="none" d=" M432.569763,629.665649   C438.693329,613.068359 444.765686,596.866821 450.578613,580.572754   C451.897400,576.876038 453.755432,575.456726 457.785248,575.412659   C462.036224,575.366089 462.547668,578.055969 463.586884,580.888794   C470.520355,599.789062 477.511444,618.668213 484.463867,637.561584   C485.142212,639.405090 486.160492,641.186279 485.888489,643.254272   C478.334137,646.092468 475.809082,644.967834 473.241821,637.710266   C469.958038,628.427002 471.870300,629.425110 461.542511,629.356934   C460.543457,629.350281 459.522980,629.490356 458.548553,629.335327   C448.570404,627.747986 441.521149,629.804932 439.223602,641.464111   C438.094116,647.195862 432.294159,643.400085 428.061676,644.325439   C428.506012,638.748352 431.083618,634.563171 432.569763,629.665649  M456.542358,619.645569   C459.726990,619.334961 463.061066,620.361267 466.631866,618.661987   C463.548218,609.648376 460.548676,600.880554 457.068085,590.706665   C453.519562,601.131104 450.509552,609.973511 447.487976,618.849976   C450.657532,620.099731 453.166931,619.439575 456.542358,619.645569  z" />
<path fill="#000000" stroke="none" d=" M558.127563,593.742676   C561.747375,581.733032 569.058411,575.347839 579.569397,574.702881   C590.365662,574.040405 599.617676,579.371704 603.673645,588.929077   C604.513123,590.906982 606.904724,593.449768 603.752258,595.488342   C601.085999,597.212402 595.708252,595.725708 594.073303,593.103455   C589.843567,586.319153 584.427429,583.786621 577.838318,585.512207   C572.395569,586.937622 568.518127,592.613403 568.357788,599.873779   C568.207153,606.693420 568.204285,613.522583 568.378418,620.341431   C568.558289,627.383362 572.722839,633.170898 578.210327,634.497742   C584.613525,636.046082 590.051147,633.416870 593.975281,626.875183   C595.666260,624.056274 601.313660,622.496216 603.972839,624.157959   C605.871460,625.344421 605.150757,626.994751 604.649292,628.587769   C601.353699,639.055786 590.485962,646.267395 579.569092,645.226379   C567.671936,644.091858 558.513611,635.351318 557.858826,623.586548   C557.314270,613.802246 557.282288,603.965210 558.127563,593.742676  z" />
</svg>