<?xml version="1.0" encoding="utf-8"?>
<svg version="1.2" xmlns:xlink="http://www.w3.org/1999/xlink" width="100%" viewBox="0 0 1024 1024" baseProfile="tiny-ps" xmlns="http://www.w3.org/2000/svg">
  <title>xmlab</title>
<path fill="#000000" stroke="none" d=" M895.423279,786.371460   C835.192444,869.560913 756.677673,927.264648 659.571716,959.634888   C627.710327,970.255859 595.028687,976.989014 561.625366,980.375427   C535.895325,982.984009 510.140076,983.949036 484.315643,982.173767   C389.022369,975.622925 303.064270,944.035278 227.032928,886.006714   C161.741196,836.174866 113.442802,772.997803 80.938957,697.792114   C61.928310,653.806274 50.073593,607.860413 45.538849,560.018616   C42.731525,530.401245 42.232559,500.802979 44.925659,471.238678   C50.641727,408.488831 68.007675,349.087280 97.519814,293.313629   C121.416786,248.151871 151.824554,207.931747 188.847977,172.725067   C229.958893,133.631485 276.541809,102.867630 328.779480,80.644585   C356.605255,68.806915 385.259155,59.598454 414.811890,53.336029   C441.381836,47.705677 468.267456,44.622734 495.456207,43.492012   C526.722961,42.191704 557.740173,44.346836 588.523438,49.164745   C627.663452,55.290565 665.382874,66.638046 701.716187,82.566895   C745.860962,101.920357 786.055481,127.479057 822.313293,159.169846   C865.931763,197.294037 901.307495,241.984360 928.387939,293.247681   C953.601562,340.976868 969.874329,391.611694 977.937744,444.906250   C983.089417,478.955780 983.639771,513.202454 981.423889,547.522278   C978.109924,598.848389 965.913086,648.069397 946.175415,695.473694   C932.798706,727.600586 915.497314,757.560486 895.423279,786.371460  M920.771240,695.358765   C953.330383,621.526428 965.657837,544.559204 956.910950,464.239075   C952.905945,427.462219 944.637878,391.718201 931.649048,357.115997   C896.675781,263.947266 836.996643,190.377853 753.430786,136.793915   C674.480652,86.169708 587.708435,63.020432 493.750549,66.975616   C456.249084,68.554253 419.618073,74.642540 383.765594,85.446472   C319.060699,104.944923 261.775574,137.800934 211.869003,183.191681   C165.408783,225.447922 129.508209,275.527405 104.129601,333.061279   C80.793510,385.964722 68.615463,441.434174 66.434853,499.097961   C65.439079,525.429993 67.326164,551.664673 71.162727,577.755432   C79.851830,636.846191 99.466957,692.038208 130.230453,743.222168   C164.243912,799.813416 208.867203,846.388489 263.448425,883.448547   C306.460114,912.653015 353.276886,933.621094 403.620941,946.309387   C446.642700,957.152405 490.399323,961.309631 534.848999,959.119690   C572.670227,957.256287 609.605164,950.984619 645.644226,939.646790   C701.756592,921.993958 752.601868,894.542480 797.890808,856.852783   C851.059570,812.605469 891.819641,758.960815 920.771240,695.358765  z" />
<path fill="#000000" stroke="none" d=" M395.355896,303.622314   C396.953003,304.203400 398.494537,304.386871 399.368317,305.247925   C407.390594,313.153778 418.399353,316.597412 426.874451,323.790741   C432.870819,328.880280 436.763611,335.442657 439.248566,342.759155   C440.353882,346.013550 441.641418,349.252502 442.706360,352.515015   C445.015411,359.588867 441.630890,364.269989 438.160828,369.462952   C435.078094,374.076233 431.596680,378.585419 431.200195,384.526855   C430.951904,388.248108 428.378540,389.049377 425.066986,388.464783   C423.527130,391.487549 424.134064,393.746826 426.657776,395.547974   C430.177826,398.060303 433.591858,400.771454 438.274689,400.789276   C440.011414,400.795898 441.374817,401.948059 442.716858,402.925079   C452.003204,409.685791 462.786987,413.907532 472.242249,420.424408   C475.765228,422.852570 477.330750,424.818848 476.748627,429.626495   C475.921509,436.457275 477.745758,443.486755 476.515320,450.482666   C476.065704,453.038971 475.141693,455.612366 475.851898,458.371918   C476.253998,459.934326 475.596680,461.467224 473.648010,461.595703   C471.354004,461.746918 470.443481,463.492340 469.857849,465.117432   C466.515381,474.392487 466.287140,483.980133 467.499908,493.645996   C467.741882,495.574707 469.417664,496.227234 471.096069,496.649567   C473.521790,497.259918 475.954834,497.839294 478.093353,499.230225   C479.519470,500.157806 481.039185,501.122223 480.609650,503.120361   C480.208649,504.985809 478.625641,505.750275 476.916382,506.017548   C475.444183,506.247742 473.928467,506.197601 472.432251,506.276886   C467.603577,506.532837 463.332306,509.828461 462.392426,514.533813   C459.752289,527.751648 456.908478,540.901550 451.887421,553.473816   C451.724396,553.882019 451.866730,554.412109 451.866730,555.559387   C453.900604,553.761597 455.917999,552.557495 457.139343,550.800110   C462.867676,542.557739 472.972961,540.922668 480.323944,535.151123   C483.776764,532.440125 486.430145,529.379272 487.258850,524.967224   C487.587372,523.218201 488.711304,521.969727 490.078796,520.977600   C493.418579,518.554749 495.284149,515.126953 497.323090,511.631653   C499.961121,507.109131 502.816864,502.975311 501.007416,497.337189   C500.559692,495.942139 501.366241,494.263336 502.431671,493.208313   C505.919922,489.754150 505.822662,485.393158 506.242401,480.954224   C506.653320,476.608643 508.689514,472.362061 506.290161,468.024597   C510.881500,463.369537 508.786194,456.892456 510.778473,451.521210   C511.900818,448.495422 512.668030,445.515839 510.006195,442.667603   C508.543243,441.102203 509.650665,439.140259 510.162384,437.434723   C511.890289,431.675659 512.031189,426.565613 508.581299,420.845154   C503.546631,412.496887 501.490051,402.463470 495.989868,394.357147   C490.462708,386.211121 487.652435,376.756622 482.236847,368.597260   C480.289886,365.663879 479.781555,361.801941 478.446686,358.431061   C474.152039,347.585693 468.638916,337.231842 464.840179,324.960571   C470.565002,326.623901 475.173523,328.670563 478.422638,332.799164   C480.550934,335.503571 482.541931,337.543854 486.199921,338.366150   C490.771057,339.393738 492.228821,343.455963 491.826324,347.747528   C491.401520,352.276917 492.893921,354.910278 497.311798,356.402618   C503.027557,358.333435 506.958069,363.092987 511.772064,366.468903   C514.050659,368.066833 516.351868,369.692139 519.047791,368.447723   C521.649841,367.246643 520.768311,364.407532 520.903381,362.156677   C520.952820,361.332886 520.474304,360.345764 520.782349,359.689178   C524.607788,351.535583 523.082458,342.869781 523.562012,334.354858   C524.193237,323.147675 523.752380,312.094910 521.359741,301.147522   C520.776428,298.478729 520.658997,295.811005 520.954407,293.204956   C522.074768,283.318756 518.894714,273.807159 518.643921,264.049835   C518.583252,261.690735 518.395447,259.413513 519.883423,257.344177   C520.582275,256.372192 520.826355,255.139771 520.428528,253.989349   C517.543335,245.645508 519.028320,237.018173 518.577393,228.508118   C518.213074,221.632416 518.082642,215.133438 521.068542,208.544327   C522.522034,205.336884 519.047791,201.528076 519.321350,197.510986   C519.527222,194.488449 518.206726,191.329651 517.393677,188.277344   C516.003845,183.059891 513.779358,181.927200 508.999359,184.655426   C495.827759,192.173187 481.475464,197.316559 468.436127,205.092178   C462.706482,208.508896 456.671692,211.338531 450.080322,212.734238   C447.396729,213.302460 446.225403,214.827896 446.062408,217.597000   C445.478912,227.512650 448.021912,236.724197 452.042084,245.635391   C453.190460,248.180908 455.002045,249.186981 457.657745,247.803787   C458.974335,247.118042 460.333649,246.443649 461.489258,245.530731   C470.743103,238.220398 479.953522,230.855103 489.175140,223.504028   C490.379395,222.544052 491.647675,221.512787 493.144012,222.806427   C494.516937,223.993347 494.285187,225.613388 493.434296,226.918823   C488.114960,235.080353 483.421570,243.575394 475.838104,250.209671   C469.150818,256.059906 463.703339,263.178040 460.344513,271.733917   C456.457764,281.634521 446.069550,283.182220 437.590759,276.880280   C426.245148,268.447479 422.187378,256.789612 419.403656,243.891586   C418.007538,237.422867 414.425598,231.347443 413.545990,224.861740   C411.593658,210.465729 414.896027,198.134155 429.018524,191.729156   C448.834106,182.742142 467.736023,171.752747 487.124298,161.806076   C496.897644,156.792084 506.886932,152.416824 518.327271,152.784561   C529.469116,153.142700 539.249207,157.356491 548.764160,162.578522   C549.332947,162.890656 549.940125,163.132843 550.460876,163.375610   C552.400208,162.709824 551.594116,159.300339 554.115662,159.761398   C556.497314,160.196854 557.017822,162.539032 557.142334,164.432404   C557.317261,167.091446 560.173279,169.534439 559.535278,171.238541   C557.554993,176.527832 558.800049,183.304535 554.026245,187.115662   C549.492371,190.735336 551.090759,194.726608 551.744507,198.767670   C552.992310,206.481323 557.039978,213.672806 555.481262,221.951721   C554.957642,224.732635 554.912598,228.507523 557.495422,230.279602   C560.428894,232.292221 563.691162,230.127045 566.351074,228.590759   C579.179932,221.181351 591.876465,213.543320 604.658447,206.052155   C608.835876,203.603928 612.807617,200.561523 617.934875,200.239532   C618.673279,202.620178 616.878723,203.148987 615.830872,204.011551   C605.426636,212.575836 594.803101,220.895874 586.824097,231.985382   C583.343445,236.822968 579.661438,241.515411 576.163086,246.340607   C574.509521,248.621338 573.235046,251.136292 570.893188,252.924423   C569.297668,254.142654 567.663513,256.180817 567.959717,257.969482   C569.455627,267.002167 561.491882,274.998718 565.261902,284.211670   C565.537109,284.884277 565.422546,286.087433 564.980408,286.626892   C558.512024,294.518890 563.177490,303.472656 562.570374,311.903656   C562.502563,312.845154 563.590820,313.912048 564.239868,314.854034   C565.526245,316.720886 565.829407,318.597656 564.077332,320.261505   C559.534424,324.575928 560.909058,329.461731 562.604126,334.378662   C562.940063,335.353210 562.166687,350.977417 561.747070,351.953400   C560.309021,355.298279 559.361755,358.456940 562.189758,361.864746   C564.793640,365.002472 563.893372,368.486511 561.182739,371.239777   C557.869202,374.605316 557.595825,377.620483 560.199036,381.835236   C562.684265,385.858978 561.169067,390.928558 560.828918,395.358246   C559.800903,408.748932 557.406006,422.039612 558.425598,435.560364   C558.515991,436.758911 558.571289,437.907867 559.370911,438.834045   C561.631714,441.452850 561.463989,444.529572 560.389038,447.349548   C558.657043,451.893402 560.126160,455.414612 563.005920,458.762268   C564.743286,460.781921 566.529114,462.769012 568.127075,464.895538   C568.901489,465.926117 570.106384,467.825104 569.735718,468.343231   C565.096252,474.828674 571.293030,478.209747 573.897339,482.196869   C579.533203,490.825287 585.948181,499.050842 589.068359,508.974152   C591.150024,515.594360 592.246399,522.475403 597.175476,527.853882   C598.036560,528.793457 598.428467,530.235718 596.904175,532.140869   C592.422913,529.763184 586.829590,530.925232 582.244019,526.925781   C574.477905,520.152405 566.113953,514.064636 558.005981,507.682770   C556.971375,506.868439 556.070618,505.805878 554.545044,505.951019   C552.789246,506.804871 553.097412,508.468323 553.169739,509.882263   C553.921387,524.580322 551.414673,539.114868 550.551758,553.716492   C550.185120,559.921448 550.071655,565.067871 553.013733,570.677124   C555.831482,576.049377 552.410095,582.124512 553.167053,587.914856   C553.399963,589.696716 553.185791,591.511353 553.654053,593.336548   C555.484192,600.470276 553.119263,606.389648 546.718079,609.806091   C541.507385,612.587097 536.339111,615.176697 530.149658,616.052856   C520.655823,617.396851 511.347504,620.075928 501.778839,621.229980   C500.967804,621.327820 499.956238,621.668945 499.358368,621.330566   C493.996826,618.296936 488.513611,615.812073 482.202881,615.420593   C480.520142,615.316223 480.229034,613.564087 480.380402,611.856628   C480.737732,607.825745 482.005737,604.039673 483.392670,600.311890   C484.794617,596.543640 486.272552,592.933960 485.366486,588.714661   C484.669708,585.469910 488.232758,583.130798 487.751709,579.724731   C487.474457,577.761902 487.817291,575.713074 487.555786,573.746216   C486.949219,569.184143 485.003601,568.293274 481.220245,570.757202   C478.192352,572.729187 475.674377,574.903259 471.277283,573.092163   C469.123993,572.205383 465.045837,573.732117 463.272156,576.017395   C459.494019,580.885010 454.376556,583.495422 449.011261,585.671448   C440.394958,589.165955 432.390045,593.662842 424.786896,598.962952   C423.451782,599.893677 421.786835,600.976440 420.207855,599.667480   C418.768860,598.474365 420.248230,596.865295 420.147064,595.498413   C419.487732,586.592590 427.060608,582.799011 431.506897,577.140564   C433.728699,574.313049 436.625916,571.918213 439.532043,569.748840   C444.185608,566.275085 442.265656,561.666077 441.355011,557.818726   C438.555847,545.992493 438.509460,534.048706 439.481964,522.153320   C439.985748,515.990845 438.739349,509.909271 439.736572,503.772705   C440.224731,500.768799 437.839661,499.676331 435.066742,499.048584   C422.412994,496.184052 409.791443,493.174805 397.177979,490.136017   C393.620392,489.278931 390.109985,488.208038 386.612518,487.123749   C381.335541,485.487823 379.498077,487.489014 375.985352,491.536011   C369.956024,498.482330 370.890778,507.785400 366.653381,514.826111   C362.676758,521.433533 360.535187,529.632751 352.947510,533.923889   C349.690155,535.766052 347.333130,538.782776 349.479553,543.136536   C350.298798,544.798157 349.613373,546.440613 348.747528,547.888977   C344.739655,554.593201 348.739136,563.448059 353.469147,567.150879   C376.379883,585.085999 401.150757,599.632141 428.347473,610.300232   C440.642883,615.123047 453.733734,619.215027 464.099487,627.624817   C472.813812,634.694763 482.284393,640.419189 491.457794,646.687317   C497.699951,650.952576 498.960754,655.556580 496.684387,663.048401   C494.353180,670.720703 489.898895,676.630981 483.221252,680.917297   C481.733368,681.872437 479.949677,683.345459 478.278015,681.615601   C476.679077,679.960999 477.885498,678.189941 478.995148,676.689758   C480.204376,675.055054 481.754578,673.397400 479.833466,671.438171   C478.081177,669.651062 476.009308,669.949097 473.861694,671.041504   C469.837341,673.088379 466.016998,675.061646 464.920380,680.174500   C464.366577,682.756470 461.539795,684.210266 460.047119,686.241821   C456.725922,690.761963 450.086609,693.777466 452.144440,701.201355   C452.424591,702.212097 452.124115,703.455811 451.285553,703.929260   C447.186737,706.243469 445.751373,711.478821 440.189758,712.635498   C436.731598,713.354736 433.987549,713.255310 430.683472,712.551270   C423.210358,710.958801 415.542725,708.525269 408.220367,713.271301   C406.747498,714.225952 405.237823,714.045654 403.995514,713.136536   C397.714935,708.540649 388.871857,707.388794 385.266144,699.121582   C384.809937,698.075623 383.289764,696.943420 382.161926,696.827148   C372.668091,695.848755 364.501495,690.431885 355.154907,688.950012   C351.113922,688.309387 347.532501,685.893005 343.127136,686.166931   C337.544312,686.514160 335.315918,687.718628 334.739502,693.265015   C333.667755,703.578186 333.871399,713.930420 337.160828,723.879517   C339.206512,730.066956 341.830933,736.755005 341.154022,742.684326   C340.281738,750.325317 343.541718,757.174377 342.728668,764.639343   C342.282410,768.736084 345.612305,772.991272 343.744537,777.589111   C343.593384,777.961182 344.863525,779.179871 345.679901,779.631897   C350.798187,782.465881 351.216003,788.663818 354.942688,792.518555   C355.622742,793.222046 355.980377,794.948730 355.182007,796.590698   C353.128967,796.540161 350.663757,795.342407 348.881653,797.629883   C348.392151,799.729980 350.246216,800.473450 351.331970,801.575134   C352.770630,803.034912 354.164246,804.499451 354.217468,806.645996   C354.287201,809.459534 355.192688,811.365906 357.687164,813.208252   C360.217957,815.077515 360.470825,818.898621 362.252106,821.711304   C364.267181,824.893250 366.590485,827.444092 369.266937,829.936279   C372.543182,832.987122 375.542419,836.333984 378.703125,839.511353   C379.630585,840.443787 380.174255,841.420044 379.304443,842.567749   C378.397034,843.764954 377.296234,843.206970 376.169006,842.734802   C372.547241,841.217407 370.536591,837.768127 367.361542,835.589111   C360.542328,830.908997 354.318481,825.359314 347.875305,820.135559   C346.667480,819.156250 345.984558,817.823059 345.854584,816.245850   C345.705627,814.438354 344.748322,812.813538 343.319427,812.125793   C335.158112,808.197693 332.593689,799.786743 327.772491,793.187744   C325.855865,790.564392 323.827850,788.022400 321.690247,785.234253   C320.365845,787.432251 322.861877,789.342346 320.950958,790.902100   C320.677399,790.954834 320.157898,791.162476 320.080963,791.054565   C314.880432,783.761230 308.897919,776.830200 308.119354,767.343933   C307.968872,765.510315 307.005035,764.283691 306.110016,762.901123   C302.523407,757.360779 299.732880,751.675171 298.350891,744.966736   C297.411957,740.408875 295.239594,735.402466 292.489349,731.617859   C289.069000,726.911072 291.464233,720.197937 286.241943,716.539856   C285.854767,716.268616 285.749878,715.241821 285.876831,714.643188   C287.387390,707.518738 283.562317,701.362244 282.501129,694.736023   C281.470062,688.297668 279.927521,681.812622 280.303528,675.166504   C280.588776,670.125366 278.050415,665.415955 279.550232,660.044495   C282.564911,649.247742 282.306305,637.719910 286.576172,627.130249   C288.628387,622.040527 292.411011,619.642456 297.732941,618.678040   C311.134949,616.249207 322.132996,621.792053 332.838257,628.467346   C339.411804,632.566223 346.529663,635.700684 352.594055,640.778381   C355.315155,643.056824 359.590210,643.979797 363.296265,644.453918   C367.866791,645.038635 371.933502,646.646057 376.091888,648.338501   C378.852325,649.461914 381.706787,649.987061 384.857025,649.346436   C391.193665,648.057739 397.359070,648.980469 403.433777,651.330505   C405.759705,652.230286 408.963013,653.036560 410.474457,649.846985   C411.418579,647.854675 411.143188,645.484131 408.871796,644.129211   C406.736877,642.855652 404.598297,641.494080 402.290985,640.621704   C395.957153,638.226990 388.048340,637.679626 383.474365,633.461121   C375.484589,626.092224 364.418884,625.325500 356.478516,617.923462   C349.798126,611.695923 340.484985,608.394531 333.128815,602.763794   C324.318054,596.019653 316.111328,588.423340 308.100647,580.720154   C303.143494,575.953247 302.570679,568.735718 300.330475,562.553528   C299.276367,559.644409 302.909821,556.771790 302.689026,553.149902   C301.783356,538.293030 307.320496,524.698914 314.426758,512.554443   C319.317413,504.196533 321.017731,494.687042 326.454468,486.784760   C328.060883,484.449829 329.313965,481.942383 331.716278,480.261353   C334.312347,478.444702 335.112701,475.858673 334.666046,472.801727   C334.207733,469.664886 331.661682,468.880585 329.236694,468.452881   C317.829956,466.441223 308.345673,459.937042 298.055695,455.325378   C297.169403,454.928162 295.909180,454.328400 295.712891,453.587006   C293.491425,445.197723 289.644196,436.889069 293.541687,428.003326   C295.563324,423.394226 296.013428,418.405090 296.921112,413.579285   C298.365417,405.900299 298.507965,397.857788 305.960083,392.858398   C306.336731,392.605774 306.556641,392.060059 306.754547,391.609131   C314.859253,373.141541 331.243683,367.448822 349.158783,364.128418   C349.800690,364.009399 350.929993,363.838776 351.073242,364.103271   C354.602112,370.618652 359.860107,365.092712 364.139618,366.064819   C366.198517,366.532501 366.371460,364.904541 367.401733,363.925171   C373.637115,357.998016 372.454742,350.797028 371.039886,343.654999   C370.591949,341.393921 369.912231,339.153320 369.610748,336.843872   C368.676514,329.687500 364.693176,324.168427 360.053345,318.997711   C359.613068,318.507050 358.746857,317.851166 358.850586,317.500305   C361.068420,310.000061 353.585541,305.906799 352.604218,299.409058   C351.406372,291.477783 355.471283,286.634308 363.398804,288.125122   C370.315430,289.425903 376.820557,291.971893 382.775391,295.824829   C386.818359,298.440704 390.916901,300.970612 395.355896,303.622314  M394.810608,472.703552   C407.373413,476.991058 419.925476,481.310638 432.511261,485.529541   C434.285156,486.124207 436.442352,487.638550 438.031677,485.628326   C439.435272,483.853119 439.478088,481.067047 438.320007,479.467133   C435.524139,475.604553 436.363159,471.592682 436.769440,467.500977   C437.460388,460.541901 437.009674,453.901886 431.979645,448.339722   C431.208008,447.486359 430.696045,446.312622 429.568787,445.930847   C423.454803,443.860229 418.617462,439.846954 413.640472,435.940338   C410.235291,433.267487 403.661224,434.377258 403.909821,437.277985   C404.553070,444.784607 399.105591,449.824554 397.231689,456.251068   C396.442627,458.957123 395.607941,462.234039 391.357727,461.699371   C389.916992,461.518127 389.587189,462.917542 389.496124,464.158752   C389.219360,467.930908 389.890594,471.168213 394.810608,472.703552  M321.017151,432.577637   C318.635529,440.010223 318.853821,442.032104 323.725647,444.495300   C328.743347,447.032227 333.622986,449.942993 339.162140,451.412231   C345.128326,452.994751 347.529327,451.680969 347.710297,445.635864   C347.826080,441.767395 348.694824,438.450897 351.197632,435.535156   C352.203308,434.363525 352.794312,432.982300 352.724976,431.414612   C352.542816,427.296143 353.150543,423.781830 356.765503,420.814789   C359.449310,418.612000 358.760406,414.909363 357.469147,411.921204   C356.190094,408.961212 353.663208,411.258942 351.717224,411.025299   C349.579315,410.768616 347.387207,410.728363 345.313354,410.213043   C336.078674,407.918213 329.143646,411.699219 325.859497,420.791779   C324.505646,424.540070 322.829346,428.171844 321.017151,432.577637  z" />
<path fill="#000000" stroke="none" d=" M681.914856,803.934387   C684.364380,800.344299 686.315857,796.868408 688.593079,793.579834   C690.701477,790.534790 689.480713,786.240845 691.394409,782.702942   C695.599121,774.929504 698.417236,766.484375 700.871216,758.068726   C702.899658,751.112854 704.142151,743.818665 703.755310,736.337708   C703.509521,731.583313 706.396606,727.255554 706.499390,722.281006   C706.569946,718.866150 705.073547,715.912292 705.115173,712.564026   C705.139221,710.624329 702.458801,709.509888 700.822937,710.680969   C697.045837,713.384705 691.664368,712.850220 688.647217,717.083252   C687.890381,718.144958 686.128723,718.689636 684.720825,719.050720   C680.429138,720.151428 676.798096,722.371582 673.300415,724.996338   C670.390747,727.179810 667.227478,728.970032 664.037292,730.775330   C650.804260,738.264160 638.332703,734.083618 626.549744,728.021057   C619.086975,724.181396 612.481934,718.758362 603.933105,717.069031   C601.970276,716.681152 601.531433,714.392273 600.934082,712.708557   C595.974854,698.729614 588.510193,685.962463 581.705688,672.881531   C576.666992,663.195068 584.417847,648.700806 594.058716,644.298157   C600.970459,641.141907 607.393738,638.478699 614.924683,637.541748   C618.634338,637.080261 620.632507,633.945129 620.997864,629.204712   C621.799683,618.799866 623.848572,608.462463 625.238220,598.125366   C627.263977,583.055542 628.933289,567.793030 627.951660,552.450500   C626.986572,537.365112 626.003357,522.236572 625.633911,507.173492   C625.383362,496.955048 620.974609,488.025330 620.295044,478.202118   C620.145813,476.045410 619.640564,473.845917 619.903809,471.741730   C620.503418,466.947845 618.104736,464.458527 614.163025,462.393158   C606.208008,458.225006 601.557434,450.856934 597.350647,443.375824   C595.673828,440.393860 593.812988,437.742065 591.350586,435.530060   C588.278015,432.769836 587.277161,429.310028 588.161438,425.580475   C589.102173,421.613068 588.664246,417.617798 589.191467,413.661438   C589.735413,409.578583 587.715210,406.192657 585.364929,403.185059   C583.435669,400.716248 583.386719,398.271881 584.475037,395.708008   C585.676453,392.877869 587.929932,390.431000 586.988586,386.932861   C586.853821,386.431793 587.692627,385.356476 588.332275,385.006622   C596.519470,380.529236 601.046631,372.902161 606.010254,365.443909   C611.221558,357.613495 616.572144,349.731873 623.898804,343.603912   C628.297058,339.925262 630.765076,334.611786 635.117737,330.935638   C642.865784,324.391968 650.727234,317.975342 658.302490,311.237091   C662.492554,307.509979 666.201477,303.241516 670.119446,299.209412   C671.104309,298.195831 671.341370,297.058655 671.233215,295.580933   C670.879700,290.749146 672.023315,290.112213 676.596130,291.811401   C681.684692,293.702209 686.030334,297.127899 689.891113,300.420624   C699.994934,309.037872 710.786560,316.949554 719.617004,327.031311   C735.713928,345.409241 750.338989,364.696167 759.178772,387.813263   C768.184509,411.364227 763.224670,432.083069 746.883057,450.603333   C744.241150,453.597382 741.505066,456.518280 738.673645,459.333282   C730.015381,467.941406 729.334290,475.648773 736.839966,485.245758   C738.665955,487.580597 739.547668,490.160736 740.513062,492.800385   C740.924622,493.925629 741.342529,495.358185 740.268188,496.064728   C733.359802,500.608246 737.346863,506.473969 738.890808,511.434753   C740.145081,515.464600 739.071899,519.643860 741.506592,523.777039   C743.773193,527.624695 745.135986,532.028870 748.114746,535.700317   C752.306702,540.867126 750.083008,547.497986 751.256592,553.394226   C751.680359,555.523376 751.899780,557.524536 753.093933,559.451172   C760.561646,571.499451 765.236328,584.752625 769.585449,598.142151   C770.044861,599.556396 770.851990,600.853821 771.415527,602.238953   C772.526978,604.970459 771.849304,607.045898 768.714661,607.215759   C765.825684,607.372253 764.066467,608.868530 762.690491,611.044128   C759.710999,615.755127 756.006042,619.976929 751.318970,622.755371   C744.349304,626.887024 736.574768,629.642578 728.463867,630.071533   C723.383728,630.340149 718.890808,631.827942 714.407837,633.676880   C711.978210,634.678955 709.510010,637.338074 707.203979,636.627197   C700.624878,634.598877 695.576355,637.181641 690.216187,640.254272   C687.905396,641.578918 685.152954,641.844849 684.836731,645.244507   C684.700745,646.706238 683.564758,647.561401 682.133911,647.830078   C674.911865,649.186707 668.858521,652.661682 663.789490,657.916382   C662.315308,659.444641 660.520691,660.140442 658.441956,660.272095   C655.676758,660.447205 653.213623,661.529114 651.214661,663.349365   C649.291077,665.101013 647.265076,666.036072 644.636719,666.461121   C641.018738,667.046204 639.535339,669.473450 641.234131,673.068909   C642.366882,675.466309 643.474548,677.902283 645.711121,679.591064   C648.113403,681.404785 649.413086,683.817749 649.239258,686.909180   C649.034424,690.550842 650.771057,690.610657 653.635986,689.588074   C665.341675,685.409973 676.842773,680.752319 688.042603,675.363098   C690.150269,674.348938 692.307190,673.582458 694.552368,672.900818   C700.274292,671.163757 705.990051,669.363342 710.746704,665.411560   C712.378174,664.056152 714.332214,662.912292 716.327515,662.200073   C729.214172,657.600159 742.394165,653.706726 756.153076,654.021484   C765.155884,654.227539 774.107178,656.292847 782.139221,660.967285   C783.475647,661.744995 784.696716,662.674805 785.043457,664.232727   C787.723755,676.276611 789.357361,688.406921 787.096924,700.707153   C786.629944,703.248352 785.419312,705.668701 784.006287,707.545471   C781.827454,708.223938 781.337158,705.837036 779.695435,705.923157   C777.874878,706.644897 778.202271,708.281616 778.183655,709.723389   C778.164001,711.245972 778.355408,713.286316 777.104187,713.921509   C771.634766,716.698242 771.886719,723.513367 767.383850,727.074646   C765.387878,728.653320 763.698181,731.832275 768.223755,733.586487   C769.785950,734.192078 770.122498,735.975586 769.309875,737.467957   C768.091797,739.705139 766.914673,742.617615 764.124207,742.615479   C762.835510,742.614502 761.848206,742.459229 761.469421,743.520691   C759.896240,747.928894 756.012085,751.136169 755.142029,755.888489   C755.023438,756.536133 754.933167,757.360107 754.507324,757.753052   C751.450928,760.573364 748.551758,763.407898 749.360535,768.153931   C749.421326,768.510681 748.946228,769.182373 748.560730,769.358521   C740.163208,773.194458 740.612000,784.065002 733.187988,788.722351   C732.412964,789.208618 732.277527,790.783264 731.936340,791.881226   C729.686401,799.122375 727.219788,805.776062 720.675842,811.002625   C717.389771,813.627258 716.248474,818.653259 710.499512,818.480713   C709.129639,818.439514 707.290649,820.368408 707.227112,822.470947   C707.071716,827.614685 702.402527,829.939880 700.262634,833.835022   C700.116272,834.101440 699.730225,834.449463 699.494202,834.422424   C690.922852,833.442078 687.259521,844.268433 678.590210,843.137573   C677.997009,843.060120 676.766052,843.892761 676.696716,844.416504   C676.205933,848.128235 672.556885,848.328369 670.606079,850.303040   C665.750183,855.218140 659.557068,856.849365 653.357178,858.700134   C649.179443,859.947327 645.409851,862.056946 641.640015,864.176392   C640.244202,864.961182 638.862366,866.229004 636.984009,864.537109   C637.014404,861.560486 639.713013,861.654297 641.515137,861.035461   C645.337402,859.722717 648.161804,856.390076 651.248413,854.935181   C657.983337,851.760437 658.703491,845.455200 662.115356,840.571960   C665.492737,835.737915 670.851135,832.441528 673.178589,826.265320   C668.225464,824.263000 670.482544,821.460938 672.743774,818.570435   C676.233337,814.109802 677.961304,808.536560 681.914856,803.934387  M686.365234,536.141052   C684.576111,530.959106 682.237488,525.995605 679.033203,521.588135   C675.817627,517.165161 674.336426,517.390198 671.635925,522.152649   C668.494568,527.692627 667.390808,533.996216 665.347107,539.942566   C664.481812,542.460327 663.662598,545.087585 661.024841,545.445312   C658.105103,545.841248 658.194031,547.602417 657.853760,549.549866   C656.649597,556.441711 655.021484,563.255981 652.154846,569.638550   C646.090576,583.140442 644.343445,597.670288 641.598206,611.974792   C641.164062,614.237183 642.199524,615.431091 644.088684,616.222900   C646.047241,617.043884 646.563538,615.519531 647.523621,614.329834   C650.156250,611.067383 652.455322,607.032532 655.894592,605.069763   C659.159302,603.206604 662.481384,601.374146 665.716675,599.384033   C668.913147,597.417786 672.726074,596.132690 676.242920,596.168884   C679.968079,596.207275 684.976318,595.177490 685.057190,591.724243   C685.169067,586.944458 688.463928,585.705261 691.351807,583.658508   C697.913086,579.008118 700.406494,570.470520 696.690979,563.525085   C694.531311,559.488037 691.021240,556.098389 692.718872,550.882996   C692.863586,550.438232 692.297607,549.642944 691.888550,549.156128   C688.891052,545.588440 688.076294,541.099609 686.365234,536.141052  M691.208008,355.305725   C691.188171,364.350494 692.524048,365.873627 701.436829,365.932587   C707.412720,365.972168 713.351135,366.077942 719.317810,366.668549   C725.513855,367.281860 726.406006,366.217346 724.473572,360.377563   C720.293396,347.745148 713.034973,336.835999 704.156616,327.063263   C700.496460,323.034393 697.469421,318.110107 691.224243,315.341431   C691.224243,328.899658 691.224243,341.626862 691.208008,355.305725  M646.801636,358.184082   C645.744080,360.444580 644.512939,362.643066 643.676941,364.982727   C642.811768,367.403809 643.611450,369.259155 646.498779,368.375885   C653.469666,366.243408 660.716248,366.913269 667.801086,365.983795   C671.912231,365.444397 674.141846,363.655701 674.783630,359.584808   C676.804077,346.767914 679.127563,333.983734 678.727661,320.926483   C678.686462,319.581024 679.396790,317.869598 677.228943,316.849091   C663.493713,327.599915 653.321472,341.052216 646.801636,358.184082  M727.523499,384.766846   C725.595886,381.193146 722.820984,381.352264 720.140381,383.526489   C718.235474,385.071503 716.359497,385.989624 713.913574,386.212219   C711.640991,386.418945 709.391541,387.085938 707.635498,389.085754   C707.967224,389.694458 708.235046,390.275116 708.580200,390.805450   C711.438416,395.196808 710.600647,396.888184 705.226501,397.172180   C702.120667,397.336304 698.999084,397.201965 695.967346,397.201965   C691.003906,403.128265 693.810364,409.554169 695.054504,415.911407   C696.711121,424.375458 700.232971,425.867615 707.979858,421.983917   C717.106995,417.408264 722.591003,409.389160 727.240356,401.034058   C729.738098,396.545471 730.024170,390.722565 727.523499,384.766846  M649.234497,391.255096   C646.729431,390.393860 644.243225,389.471100 641.712952,388.691772   C639.857300,388.120209 638.356995,388.808380 637.683044,390.625214   C635.421204,396.722504 633.461365,402.950745 634.827515,409.526581   C635.452271,412.533264 634.171814,416.079254 636.847534,418.524902   C641.129395,422.438660 646.400635,424.419983 651.966492,425.646057   C654.244568,426.147858 655.686951,424.760986 656.873291,422.999451   C661.372131,416.319733 663.947205,408.813263 666.233276,401.191437   C667.209595,397.936432 665.328125,396.484253 662.466309,396.136536   C657.907959,395.582703 653.881897,393.709656 649.234497,391.255096  z" />
<path fill="#000000" stroke="none" d=" M323.598877,796.778564   C325.482605,794.897339 326.493439,796.451416 327.149200,797.629639   C328.475769,800.012878 330.609833,801.982422 331.405121,805.623779   C326.357635,804.335632 324.341949,801.271240 323.598877,796.778564  z" />
</svg>